{"title":"THOR THE DARK WORLD 2013 CAMRiP XViD DUAL MP3 MURDER","uid":9230965,"size":2370324751,"categoryP":"video","categoryS":"movies","magnet":"?xt=urn:btih:3f7baf4041071fb8bb8ef9bbce7451720414410a&amp;dn=THOR+THE+DARK+WORLD+2013+CAMRiP+XViD+DUAL+MP3+MURDER&amp;tr=udp%3A%2F%2Ftracker.openbittorrent.com%3A80&amp;tr=udp%3A%2F%2Fopen.demonii.com%3A1337&amp;tr=udp%3A%2F%2Ftracker.coppersurfer.tk%3A6969&amp;tr=udp%3A%2F%2Fexodus.desync.com%3A6969","seeders":6,"leechers":4,"uploader":".BONE.","files":19,"time":1385068905,"description":"General\nComplete name : THOR THE DARK WORLD 2013 CAMRiP XViD DUAL MP3 MURDER.mkv\nFormat : Matroska\nFormat version : Version 4 / Version 2\nFile size : 2.20 GiB\nDuration : 1h 46mn\nOverall bit rate : 2 965 Kbps\nEncoded date : UTC 2013-11-20 00:13:32\nWriting application : mkvmerge v6.3.0 ('You can't stop me!') built on Jun 28 2013 20:09:41\nWriting library : libebml v1.3.0 + libmatroska v1.4.0\n\nVideo\nID : 1\nFormat : MPEG-4 Visual\nFormat profile : Advanced Simple@L5\nFormat settings, BVOP : Yes\nFormat settings, QPel : No\nFormat settings, GMC : No warppoints\nFormat settings, Matrix : Default (MPEG)\nCodec ID : V_MS/VFW/FOURCC / XVID\nCodec ID/Hint : XviD\nDuration : 1h 46mn\nBit rate : 2 522 Kbps\nWidth : 720 pixels\nHeight : 272 pixels\nDisplay aspect ratio : 2.647\nFrame rate mode : Constant\nFrame rate : 25.000 fps\nColor space : YUV\nChroma subsampling : 4:2:0\nBit depth : 8 bits\nScan type : Progressive\nCompression mode : Lossy\nBits/(Pixel*Frame) : 0.515\nStream size : 1.87 GiB (85%)\nTitle : TELESYNC...\nWriting library : XviD 64\nLanguage : English\nDefault : Yes\nForced : No\n\nAudio #1 : ENGLISH\nID : 2\nFormat : MPEG Audio\nFormat version : Version 1\nFormat profile : Layer 3\nMode : Dual mono\nCodec ID : A_MPEG/L3\nCodec ID/Hint : MP3\nDuration : 1h 46mn\nBit rate mode : Constant\nBit rate : 192 Kbps\nChannel count : 2 channels\nSampling rate : 48.0 KHz\nCompression mode : Lossy\nStream size : 146 MiB (6%)\nTitle : ENGLISH..FLITERD..CAM...AUDIO..\nWriting library : LAME3.93\nLanguage : English\nDefault : Yes\nForced : No\n\nAudio #2 : RUSSIAN\nID : 3\nFormat : MPEG Audio\nFormat version : Version 1\nFormat profile : Layer 3\nMode : Joint stereo\nMode extension : MS Stereo\nCodec ID : A_MPEG/L3\nCodec ID/Hint : MP3\nDuration : 1h 46mn\nBit rate mode : Constant\nBit rate : 192 Kbps\nChannel count : 2 channels\nSampling rate : 44.1 KHz\nCompression mode : Lossy\nStream size : 146 MiB (6%)\nTitle : RUSSIAN...DUB...\nLanguage : Russian\nDefault : No\nForced : No\n &lt;a href=&quot;\nhttp://s20.postimage.org/7p5ruc6t9/vlcsnap_2013_11_20_01h13m19s94.png&quot; rel=&quot;nofollow&quot; target=&quot;_NEW&quot;&gt;\nhttp://s20.postimage.org/7p5ruc6t9/vlcsnap_2013_11_20_01h13m19s94.png&lt;/a&gt; &lt;a href=&quot;\nhttp://s20.postimage.org/bx0k3388t/vlcsnap_2013_11_20_01h20m52s16.png&quot; rel=&quot;nofollow&quot; target=&quot;_NEW&quot;&gt;\nhttp://s20.postimage.org/bx0k3388t/vlcsnap_2013_11_20_01h20m52s16.png&lt;/a&gt; &lt;a href=&quot;\nhttp://s20.postimage.org/4frcnvipp/vlcsnap_2013_11_20_01h13m14s43.png&quot; rel=&quot;nofollow&quot; target=&quot;_NEW&quot;&gt;\nhttp://s20.postimage.org/4frcnvipp/vlcsnap_2013_11_20_01h13m14s43.png&lt;/a&gt; &lt;a href=&quot;\nhttp://s20.postimage.org/si86iqzct/vlcsnap_2013_11_20_01h13m22s122.png&quot; rel=&quot;nofollow&quot; target=&quot;_NEW&quot;&gt;\nhttp://s20.postimage.org/si86iqzct/vlcsnap_2013_11_20_01h13m22s122.png&lt;/a&gt; &lt;a href=&quot;\nhttp://s20.postimage.org/c4o6zlj7h/8kbn4ehkwcksu4n18vzihf908.png&quot; rel=&quot;nofollow&quot; target=&quot;_NEW&quot;&gt;\nhttp://s20.postimage.org/c4o6zlj7h/8kbn4ehkwcksu4n18vzihf908.png&lt;/a&gt; &lt;a href=&quot;\nhttp://s20.postimage.org/e7ym79j0d/4qs606rt5fdh9lwpz325294d3.png&quot; rel=&quot;nofollow&quot; target=&quot;_NEW&quot;&gt;\nhttp://s20.postimage.org/e7ym79j0d/4qs606rt5fdh9lwpz325294d3.png&lt;/a&gt;","torrent":{"xt":"urn:btih:3f7baf4041071fb8bb8ef9bbce7451720414410a","amp;dn":"THOR+THE+DARK+WORLD+2013+CAMRiP+XViD+DUAL+MP3+MURDER","amp;tr":["udp%3A%2F%2Ftracker.openbittorrent.com%3A80","udp%3A%2F%2Fopen.demonii.com%3A1337","udp%3A%2F%2Ftracker.coppersurfer.tk%3A6969","udp%3A%2F%2Fexodus.desync.com%3A6969"],"infoHash":"3f7baf4041071fb8bb8ef9bbce7451720414410a","infoHashBuffer":{"type":"Buffer","data":[63,123,175,64,65,7,31,184,187,142,249,187,206,116,81,114,4,20,65,10]},"announce":[],"urlList":[]}}